<svg width="125" height="125" viewBox="0 0 125 125" fill="none" xmlns="http://www.w3.org/2000/svg">
<path d="M62.5 125C54.2924 125 46.1651 123.383 38.5823 120.242C30.9994 117.102 24.1095 112.498 18.3058 106.694C12.5021 100.89 7.89842 94.0005 4.75751 86.4177C1.61659 78.8348 -1.27695e-05 70.7076 -5.4639e-06 62.5L21.1453 62.5C21.1452 67.9308 22.2149 73.3084 24.2932 78.3258C26.3715 83.3431 29.4176 87.9021 33.2578 91.7422C37.0979 95.5824 41.6568 98.6285 46.6742 100.707C51.6916 102.785 57.0692 103.855 62.5 103.855L62.5 125Z" fill="#3C7AFC"/>
<path d="M62.5 0C70.7076 0 78.8349 1.61662 86.4177 4.75754C94.0006 7.89846 100.891 12.5022 106.694 18.3058C112.498 24.1095 117.102 30.9995 120.242 38.5823C123.383 46.1652 125 54.2924 125 62.5L103.855 62.5C103.855 57.0692 102.785 51.6916 100.707 46.6742C98.6285 41.6569 95.5824 37.0979 91.7422 33.2578C87.9021 29.4176 83.3432 26.3715 78.3258 24.2932C73.3084 22.2149 67.9308 21.1453 62.5 21.1453L62.5 0Z" fill="#FFBD00"/>
<path d="M62.5 5.46392e-06C54.2924 4.74639e-06 46.1651 1.61662 38.5823 4.75754C30.9994 7.89846 24.1095 12.5022 18.3058 18.3058C12.5022 24.1095 7.89844 30.9995 4.75752 38.5823C1.61661 46.1652 -4.06608e-07 54.2924 5.46394e-06 62.5L21.1453 62.5C21.1453 57.0692 22.2149 51.6916 24.2932 46.6742C26.3715 41.6569 29.4176 37.0979 33.2578 33.2578C37.0979 29.4177 41.6568 26.3715 46.6742 24.2932C51.6916 22.2149 57.0692 21.1453 62.5 21.1453L62.5 5.46392e-06Z" fill="#FB260A"/>
<path d="M62.5 125C70.7076 125 78.8349 123.383 86.4177 120.242C94.0006 117.102 100.891 112.498 106.694 106.694C112.498 100.89 117.102 94.0005 120.242 86.4177C123.383 78.8348 125 70.7076 125 62.5L103.855 62.5C103.855 67.9308 102.785 73.3084 100.707 78.3258C98.6285 83.3431 95.5824 87.9021 91.7422 91.7422C87.9021 95.5823 83.3432 98.6285 78.3258 100.707C73.3084 102.785 67.9308 103.855 62.5 103.855L62.5 125Z" fill="#00A453"/>
</svg>
