<svg width="58" height="98" viewBox="0 0 58 98" fill="none" xmlns="http://www.w3.org/2000/svg">
<rect width="16" height="75" rx="8" transform="matrix(-1 0 0 1 58 0)" fill="#3C7AFC"/>
<path d="M58 66.5C58 70.6366 57.2499 74.7328 55.7925 78.5545C54.3351 82.3763 52.199 85.8488 49.5061 88.7739C46.8132 91.6989 43.6163 94.0192 40.0978 95.6022C36.5794 97.1852 32.8083 98 29 98L29 80.9394C30.7457 80.9394 32.4743 80.5659 34.0872 79.8402C35.7 79.1146 37.1654 78.051 38.3998 76.7102C39.6343 75.3694 40.6134 73.7776 41.2815 72.0257C41.9495 70.2738 42.2934 68.3962 42.2934 66.5H58Z" fill="#3C7AFC"/>
</svg>
