<svg width="490" height="379" viewBox="0 0 490 379" fill="none" xmlns="http://www.w3.org/2000/svg">
<g filter="url(#filter0_i_710_792)">
<path d="M111.68 154.08C105.92 156.853 99.5733 158.987 92.64 160.48C85.8133 162.08 77.92 162.88 68.96 162.88C59.7867 162.88 51.4133 161.44 43.84 158.56C36.2667 155.573 29.76 151.467 24.32 146.24C18.88 140.907 14.6133 134.613 11.52 127.36C8.53333 120 7.04 111.893 7.04 103.04C7.04 93.9733 8.58667 85.8133 11.68 78.56C14.88 71.2 19.2 64.96 24.64 59.84C30.1867 54.72 36.6933 50.7733 44.16 48C51.6267 45.2267 59.7333 43.84 68.48 43.84C77.5467 43.84 85.8133 45.1733 93.28 47.84C100.853 50.4 106.933 53.8133 111.52 58.08L97.6 73.12C94.72 69.92 90.6667 67.2 85.44 64.96C80.32 62.72 74.72 61.6 68.64 61.6C62.6667 61.6 57.2267 62.6667 52.32 64.8C47.52 66.9333 43.4133 69.8667 40 73.6C36.5867 77.3333 33.92 81.7067 32 86.72C30.1867 91.7333 29.28 97.1733 29.28 103.04C29.28 109.12 30.1867 114.72 32 119.84C33.92 124.853 36.5867 129.227 40 132.96C43.52 136.693 47.7333 139.627 52.64 141.76C57.6533 143.787 63.3067 144.8 69.6 144.8C78.24 144.8 85.76 143.467 92.16 140.8V112H68.32V95.36H111.68V154.08Z" fill="#FB260A"/>
<path d="M136.23 46.72H176.39C183.75 46.72 191.163 47.68 198.63 49.6C206.097 51.52 212.817 54.72 218.79 59.2C224.763 63.5733 229.617 69.3867 233.35 76.64C237.083 83.7867 238.95 92.6933 238.95 103.36C238.95 113.28 237.083 121.813 233.35 128.96C229.617 136.107 224.763 141.973 218.79 146.56C212.817 151.147 206.097 154.56 198.63 156.8C191.163 158.933 183.75 160 176.39 160H136.23V46.72ZM173.19 142.4C178.417 142.4 183.643 141.813 188.87 140.64C194.097 139.36 198.79 137.28 202.95 134.4C207.217 131.413 210.683 127.413 213.35 122.4C216.017 117.387 217.35 111.04 217.35 103.36C217.35 95.2533 216.017 88.64 213.35 83.52C210.683 78.4 207.217 74.4 202.95 71.52C198.79 68.64 194.097 66.6667 188.87 65.6C183.643 64.5333 178.417 64 173.19 64H156.39V142.4H173.19Z" fill="#00A453"/>
<path d="M316.178 70.4C314.044 67.6267 311.004 65.3333 307.058 63.52C303.218 61.6 299.324 60.64 295.378 60.64C293.031 60.64 290.684 60.96 288.338 61.6C285.991 62.1333 283.858 63.04 281.938 64.32C280.018 65.4933 278.418 67.0933 277.138 69.12C275.964 71.04 275.378 73.3867 275.378 76.16C275.378 78.72 275.911 80.9067 276.978 82.72C278.044 84.5333 279.484 86.08 281.298 87.36C283.218 88.64 285.511 89.76 288.177 90.72C290.844 91.68 293.778 92.64 296.978 93.6C300.604 94.7733 304.338 96.1067 308.178 97.6C312.124 99.0933 315.698 101.067 318.898 103.52C322.204 105.973 324.871 109.067 326.898 112.8C329.031 116.533 330.098 121.173 330.098 126.72C330.098 132.8 328.978 138.133 326.737 142.72C324.498 147.2 321.511 150.933 317.778 153.92C314.044 156.907 309.671 159.147 304.658 160.64C299.644 162.133 294.364 162.88 288.818 162.88C281.458 162.88 274.258 161.547 267.218 158.88C260.178 156.107 254.418 152.053 249.938 146.72L264.338 133.28C267.111 137.12 270.791 140.16 275.378 142.4C280.071 144.64 284.658 145.76 289.138 145.76C291.484 145.76 293.884 145.493 296.338 144.96C298.791 144.32 300.978 143.307 302.898 141.92C304.924 140.533 306.524 138.827 307.698 136.8C308.978 134.667 309.618 132.053 309.618 128.96C309.618 125.973 308.924 123.52 307.538 121.6C306.151 119.573 304.284 117.867 301.938 116.48C299.591 114.987 296.818 113.707 293.618 112.64L283.538 109.28C280.124 108.213 276.711 106.933 273.298 105.44C269.884 103.947 266.791 101.973 264.018 99.52C261.351 97.0667 259.164 94.08 257.458 90.56C255.751 86.9333 254.898 82.4533 254.898 77.12C254.898 71.36 256.071 66.4 258.418 62.24C260.871 58.08 264.018 54.6667 267.858 52C271.804 49.2267 276.231 47.2 281.138 45.92C286.151 44.5333 291.218 43.84 296.338 43.84C302.098 43.84 307.911 44.8533 313.778 46.88C319.751 48.9067 324.924 51.9467 329.298 56L316.178 70.4Z" fill="#3C7AFC"/>
</g>
<g filter="url(#filter1_i_710_792)">
<path d="M356.079 59.5893C350.425 65.5393 345.999 72.5446 343.053 80.2052C340.107 87.8658 338.698 96.0317 338.908 104.237C339.117 112.442 340.941 120.525 344.274 128.025C347.608 135.525 352.386 142.295 358.336 147.949L372.901 132.62C368.964 128.879 365.803 124.4 363.597 119.437C361.391 114.474 360.185 109.126 360.046 103.697C359.907 98.2676 360.839 92.8644 362.789 87.7956C364.738 82.7268 367.667 78.0915 371.408 74.1546L356.079 59.5893Z" fill="#FFBD00"/>
</g>
<path d="M445.429 146.735C439.605 152.518 432.699 157.098 425.106 160.213C417.512 163.327 409.379 164.916 401.172 164.887C392.964 164.859 384.842 163.214 377.27 160.047C369.699 156.88 362.825 152.252 357.041 146.429L372.045 131.529C375.871 135.382 380.42 138.444 385.43 140.54C390.44 142.635 395.814 143.723 401.245 143.742C406.676 143.761 412.057 142.71 417.081 140.649C422.106 138.588 426.675 135.558 430.529 131.731L445.429 146.735Z" fill="#FB260A"/>
<path d="M355.347 61.0409C361.17 55.2573 368.076 50.6775 375.67 47.5628C383.263 44.4481 391.396 42.8596 399.604 42.888C407.811 42.9164 415.933 44.5611 423.505 47.7283C431.077 50.8954 437.951 55.5229 443.734 61.3466L428.731 76.2468C424.904 72.3934 420.356 69.3314 415.345 67.2358C410.335 65.1402 404.961 64.0519 399.531 64.0331C394.1 64.0144 388.719 65.0654 383.694 67.1263C378.669 69.1872 374.1 72.2176 370.247 76.0445L355.347 61.0409Z" fill="#00A453"/>
<defs>
<filter id="filter0_i_710_792" x="7.04004" y="43.8398" width="323.058" height="339.16" filterUnits="userSpaceOnUse" color-interpolation-filters="sRGB">
<feFlood flood-opacity="0" result="BackgroundImageFix"/>
<feBlend mode="normal" in="SourceGraphic" in2="BackgroundImageFix" result="shape"/>
<feColorMatrix in="SourceAlpha" type="matrix" values="0 0 0 0 0 0 0 0 0 0 0 0 0 0 0 0 0 0 127 0" result="hardAlpha"/>
<feOffset dy="4"/>
<feGaussianBlur stdDeviation="4"/>
<feComposite in2="hardAlpha" operator="arithmetic" k2="-1" k3="1"/>
<feColorMatrix type="matrix" values="0 0 0 0 0 0 0 0 0 0 0 0 0 0 0 0 0 0 0.3 0"/>
<feBlend mode="normal" in2="shape" result="effect1_innerShadow_710_792"/>
</filter>
<filter id="filter1_i_710_792" x="338.888" y="59.5894" width="34.0137" height="92.3594" filterUnits="userSpaceOnUse" color-interpolation-filters="sRGB">
<feFlood flood-opacity="0" result="BackgroundImageFix"/>
<feBlend mode="normal" in="SourceGraphic" in2="BackgroundImageFix" result="shape"/>
<feColorMatrix in="SourceAlpha" type="matrix" values="0 0 0 0 0 0 0 0 0 0 0 0 0 0 0 0 0 0 127 0" result="hardAlpha"/>
<feOffset dy="4"/>
<feGaussianBlur stdDeviation="2"/>
<feComposite in2="hardAlpha" operator="arithmetic" k2="-1" k3="1"/>
<feColorMatrix type="matrix" values="0 0 0 0 0 0 0 0 0 0 0 0 0 0 0 0 0 0 0.25 0"/>
<feBlend mode="normal" in2="shape" result="effect1_innerShadow_710_792"/>
</filter>
</defs>
</svg>
