<svg width="441" height="111" viewBox="0 0 441 111" fill="none" xmlns="http://www.w3.org/2000/svg">
<g filter="url(#filter0_i_736_809)">
<path d="M104.64 102.441C98.88 104.95 92.5333 106.881 85.6 108.233C78.7733 109.681 70.88 110.405 61.92 110.405C52.7467 110.405 44.3733 109.101 36.8 106.495C29.2267 103.792 22.72 100.076 17.28 95.3452C11.84 90.5188 7.5733 84.8226 4.48 78.2586C1.49333 71.5977 0 64.2607 0 56.2487C0 48.0432 1.54667 40.6583 4.64 34.0939C7.84 27.433 12.16 21.7858 17.6 17.1521C23.1467 12.5184 29.6533 8.9466 37.12 6.43673C44.5867 3.92686 52.6933 2.67188 61.44 2.67188C70.5067 2.67188 78.7733 3.87853 86.24 6.29193C93.813 8.60876 99.893 11.6978 104.48 15.5593L90.56 29.1707C87.68 26.2746 83.6267 23.813 78.4 21.7858C73.28 19.7585 67.68 18.7449 61.6 18.7449C55.6267 18.7449 50.1867 19.7103 45.28 21.641C40.48 23.5716 36.3733 26.2264 32.96 29.6051C29.5467 32.9838 26.88 36.9417 24.96 41.4788C23.1467 46.0159 22.24 50.9392 22.24 56.2487C22.24 61.7511 23.1467 66.8192 24.96 71.4529C26.88 75.9897 29.5467 79.9482 32.96 83.3267C36.48 86.7051 40.6933 89.3604 45.6 91.2908C50.6133 93.1252 56.2667 94.042 62.56 94.042C71.2 94.042 78.72 92.8356 85.12 90.422V64.3576H61.28V49.2982H104.64V102.441Z" fill="#FB260A"/>
<path d="M129.19 5.27832H169.35C176.71 5.27832 184.123 6.14713 191.59 7.88476C199.057 9.62238 205.777 12.5184 211.75 16.5729C217.723 20.5308 222.577 25.792 226.31 32.3563C230.043 38.8242 231.91 46.8848 231.91 56.5383C231.91 65.516 230.043 73.2385 226.31 79.7066C222.577 86.1747 217.723 91.4835 211.75 95.6348C205.777 99.7861 199.057 102.875 191.59 104.902C184.123 106.833 176.71 107.798 169.35 107.798H129.19V5.27832ZM166.15 91.87C171.377 91.87 176.603 91.3387 181.83 90.2772C187.057 89.1187 191.75 87.2363 195.91 84.6299C200.177 81.9266 203.643 78.3065 206.31 73.7697C208.977 69.2329 210.31 63.4888 210.31 56.5383C210.31 49.2016 208.977 43.2165 206.31 38.5828C203.643 33.9491 200.177 30.3291 195.91 27.7226C191.75 25.1162 187.057 23.3303 181.83 22.365C176.603 21.3996 171.377 20.9169 166.15 20.9169H149.35V91.87H166.15Z" fill="#00A453"/>
<path d="M309.138 26.709C307.004 24.1992 303.964 22.1236 300.018 20.4825C296.178 18.7449 292.284 17.8761 288.338 17.8761C285.991 17.8761 283.644 18.1657 281.298 18.7449C278.951 19.2276 276.818 20.0481 274.898 21.2065C272.978 22.2684 271.378 23.7164 270.098 25.5506C268.924 27.2882 268.338 29.412 268.338 31.9219C268.338 34.2387 268.871 36.2177 269.938 37.8588C271.004 39.4998 272.444 40.8996 274.258 42.058C276.178 43.2165 278.471 44.2301 281.137 45.0989C283.804 45.9677 286.738 46.8365 289.938 47.7053C293.564 48.7672 297.298 49.9739 301.138 51.3254C305.084 52.6768 308.658 54.4631 311.858 56.6831C315.164 58.9031 317.831 61.7032 319.858 65.0816C321.991 68.46 323.058 72.6593 323.058 77.6794C323.058 83.1818 321.938 88.0083 319.697 92.1596C317.458 96.214 314.471 99.5924 310.738 102.296C307.004 104.999 302.631 107.026 297.618 108.377C292.604 109.729 287.324 110.405 281.778 110.405C274.418 110.405 267.218 109.198 260.178 106.785C253.138 104.275 247.378 100.606 242.898 95.7796L257.298 83.6163C260.071 87.0915 263.751 89.8427 268.338 91.87C273.031 93.8972 277.618 94.9108 282.098 94.9108C284.444 94.9108 286.844 94.6692 289.298 94.1868C291.751 93.6076 293.938 92.6908 295.858 91.4356C297.884 90.1803 299.484 88.6364 300.658 86.8019C301.938 84.8715 302.578 82.5058 302.578 79.7066C302.578 77.0033 301.884 74.7833 300.498 73.0457C299.111 71.2112 297.244 69.6673 294.898 68.412C292.551 67.0608 289.778 65.9024 286.578 64.9368L276.498 61.8959C273.084 60.9303 269.671 59.7719 266.258 58.4207C262.844 57.0695 259.751 55.283 256.978 53.063C254.311 50.8427 252.124 48.1397 250.418 44.9541C248.711 41.6719 247.858 37.6174 247.858 32.7907C247.858 27.5778 249.031 23.089 251.378 19.3241C253.831 15.5593 256.978 12.4702 260.818 10.0568C264.764 7.54691 269.191 5.71272 274.098 4.5543C279.111 3.29932 284.178 2.67188 289.298 2.67188C295.058 2.67188 300.871 3.58893 306.738 5.42312C312.711 7.25731 317.884 10.0085 322.258 13.6768L309.138 26.709Z" fill="#3C7AFC"/>
</g>
<g filter="url(#filter1_i_736_809)">
<path d="M351.039 15.1152C345.385 20.5001 340.959 26.84 338.013 33.7729C335.067 40.7058 333.658 48.0961 333.868 55.522C334.077 62.9476 335.901 70.2628 339.234 77.0504C342.568 83.838 347.346 89.965 353.296 95.0819L367.861 81.209C363.924 77.8233 360.763 73.7698 358.557 69.2782C356.351 64.7866 355.145 59.9466 355.006 55.0333C354.867 50.1196 355.799 45.2296 357.749 40.6423C359.698 36.055 362.627 31.86 366.368 28.297L351.039 15.1152Z" fill="#FFBD00"/>
</g>
<path d="M440.389 93.9833C434.565 99.217 427.659 103.362 420.066 106.181C412.472 108.999 404.339 110.437 396.132 110.411C387.924 110.386 379.802 108.897 372.23 106.031C364.659 103.165 357.785 98.9763 352.001 93.7064L367.005 80.2217C370.831 83.7087 375.38 86.4798 380.39 88.3767C385.4 90.2727 390.774 91.2574 396.205 91.2746C401.636 91.2918 407.017 90.3406 412.041 88.4754C417.066 86.6102 421.635 83.868 425.489 80.4045L440.389 93.9833Z" fill="#FB260A"/>
<path d="M350.307 16.429C356.13 11.1947 363.036 7.04994 370.63 4.2311C378.223 1.41225 386.356 -0.0253637 394.564 0.000338642C402.771 0.026041 410.893 1.51451 418.465 4.38087C426.037 7.24714 432.911 11.4351 438.694 16.7056L423.691 30.1905C419.864 26.7031 415.316 23.932 410.305 22.0354C405.295 20.1389 399.921 19.1539 394.491 19.1369C389.06 19.12 383.679 20.0712 378.654 21.9363C373.629 23.8015 369.06 26.544 365.207 30.0074L350.307 16.429Z" fill="#00A453"/>
<defs>
<filter id="filter0_i_736_809" x="0" y="2.67188" width="323.059" height="111.732" filterUnits="userSpaceOnUse" color-interpolation-filters="sRGB">
<feFlood flood-opacity="0" result="BackgroundImageFix"/>
<feBlend mode="normal" in="SourceGraphic" in2="BackgroundImageFix" result="shape"/>
<feColorMatrix in="SourceAlpha" type="matrix" values="0 0 0 0 0 0 0 0 0 0 0 0 0 0 0 0 0 0 127 0" result="hardAlpha"/>
<feOffset dy="4"/>
<feGaussianBlur stdDeviation="4"/>
<feComposite in2="hardAlpha" operator="arithmetic" k2="-1" k3="1"/>
<feColorMatrix type="matrix" values="0 0 0 0 0 0 0 0 0 0 0 0 0 0 0 0 0 0 0.3 0"/>
<feBlend mode="normal" in2="shape" result="effect1_innerShadow_736_809"/>
</filter>
<filter id="filter1_i_736_809" x="333.848" y="15.1152" width="34.0137" height="83.9668" filterUnits="userSpaceOnUse" color-interpolation-filters="sRGB">
<feFlood flood-opacity="0" result="BackgroundImageFix"/>
<feBlend mode="normal" in="SourceGraphic" in2="BackgroundImageFix" result="shape"/>
<feColorMatrix in="SourceAlpha" type="matrix" values="0 0 0 0 0 0 0 0 0 0 0 0 0 0 0 0 0 0 127 0" result="hardAlpha"/>
<feOffset dy="4"/>
<feGaussianBlur stdDeviation="2"/>
<feComposite in2="hardAlpha" operator="arithmetic" k2="-1" k3="1"/>
<feColorMatrix type="matrix" values="0 0 0 0 0 0 0 0 0 0 0 0 0 0 0 0 0 0 0.25 0"/>
<feBlend mode="normal" in2="shape" result="effect1_innerShadow_736_809"/>
</filter>
</defs>
</svg>
