<svg width="56" height="62" viewBox="0 0 56 62" fill="none" xmlns="http://www.w3.org/2000/svg">
<g filter="url(#filter0_d_107_804)">
<path d="M47.25 0H8.75C3.91751 0 0 3.91751 0 8.75V47.25C0 52.0825 3.91751 56 8.75 56H47.25C52.0825 56 56 52.0825 56 47.25V8.75C56 3.91751 52.0825 0 47.25 0Z" fill="#231E1B"/>
<path fill-rule="evenodd" clip-rule="evenodd" d="M27.9572 14.3359C20.2508 14.3359 14 20.5867 14 28.2931C14 34.4583 18.0245 39.6815 23.5046 41.5653C24.1896 41.6509 24.4465 41.2228 24.4465 40.8803C24.4465 40.5378 24.4465 39.6815 24.4465 38.4827C20.5933 39.339 19.737 36.5989 19.737 36.5989C19.1376 34.972 18.1957 34.5439 18.1957 34.5439C16.9113 33.6876 18.2813 33.6876 18.2813 33.6876C19.6514 33.7733 20.422 35.1433 20.422 35.1433C21.7064 37.284 23.6758 36.6846 24.4465 36.3421C24.5321 35.4002 24.9602 34.8008 25.3028 34.4583C22.2202 34.1158 18.9664 32.917 18.9664 27.5225C18.9664 25.9812 19.4801 24.7824 20.422 23.7549C20.3364 23.498 19.8226 22.0424 20.5933 20.1586C20.5933 20.1586 21.7921 19.8161 24.4465 21.6142C25.5596 21.2717 26.7584 21.1861 27.9572 21.1861C29.156 21.1861 30.3547 21.3573 31.4679 21.6142C34.1223 19.8161 35.3211 20.1586 35.3211 20.1586C36.0917 22.0424 35.578 23.498 35.4924 23.8405C36.3486 24.7824 36.948 26.0668 36.948 27.6081C36.948 33.0026 33.6942 34.1158 30.6116 34.4583C31.1254 34.8864 31.5535 35.7427 31.5535 37.0271C31.5535 38.9109 31.5535 40.3665 31.5535 40.8803C31.5535 41.2228 31.8104 41.6509 32.4954 41.5653C38.0612 39.6815 42 34.4583 42 28.2931C41.9144 20.5867 35.6636 14.3359 27.9572 14.3359Z" fill="white"/>
</g>
<defs>
<filter id="filter0_d_107_804" x="0" y="0" width="56" height="62" filterUnits="userSpaceOnUse" color-interpolation-filters="sRGB">
<feFlood flood-opacity="0" result="BackgroundImageFix"/>
<feColorMatrix in="SourceAlpha" type="matrix" values="0 0 0 0 0 0 0 0 0 0 0 0 0 0 0 0 0 0 127 0" result="hardAlpha"/>
<feOffset dy="6"/>
<feComposite in2="hardAlpha" operator="out"/>
<feColorMatrix type="matrix" values="0 0 0 0 0 0 0 0 0 0 0 0 0 0 0 0 0 0 0.25 0"/>
<feBlend mode="normal" in2="BackgroundImageFix" result="effect1_dropShadow_107_804"/>
<feBlend mode="normal" in="SourceGraphic" in2="effect1_dropShadow_107_804" result="shape"/>
</filter>
</defs>
</svg>
