<svg width="565" height="134" viewBox="0 0 565 134" fill="none" xmlns="http://www.w3.org/2000/svg">
<rect x="505" width="17" height="505" rx="8.5" transform="rotate(90 505 0)" fill="#00A453"/>
<path d="M565 67C565 58.2014 563.267 49.489 559.9 41.3602C556.533 33.2314 551.598 25.8454 545.376 19.6238C539.155 13.4023 531.769 8.46714 523.64 5.10007C515.511 1.73301 506.799 -3.84597e-07 498 0L498 16.8614C504.584 16.8614 511.104 18.1583 517.187 20.678C523.27 23.1977 528.798 26.8909 533.453 31.5467C538.109 36.2025 541.802 41.7297 544.322 47.8128C546.842 53.8959 548.139 60.4157 548.139 67H565Z" fill="#00A453"/>
</svg>
