<svg width="58" height="89" viewBox="0 0 58 89" fill="none" xmlns="http://www.w3.org/2000/svg">
<rect width="16" height="68.1122" rx="8" transform="matrix(1 0 0 -1 0 89)" fill="#00A453"/>
<path d="M0 28.6071C0 24.8504 0.750107 21.1304 2.20749 17.6597C3.66488 14.1889 5.80101 11.0353 8.4939 8.37884C11.1868 5.72242 14.3837 3.61523 17.9022 2.17759C21.4206 0.739945 25.1917 -1.64212e-07 29 0L29 15.4938C27.2543 15.4938 25.5257 15.833 23.9128 16.492C22.3 17.151 20.8346 18.117 19.6002 19.3346C18.3657 20.5523 17.3866 21.9979 16.7185 23.5889C16.0505 25.1799 15.7066 26.8851 15.7066 28.6071H0Z" fill="#00A453"/>
</svg>
