<svg width="58" height="89" viewBox="0 0 58 89" fill="none" xmlns="http://www.w3.org/2000/svg">
<rect x="58" y="89" width="16" height="68.1122" rx="8" transform="rotate(-180 58 89)" fill="#00A453"/>
<path d="M58 28.6071C58 24.8504 57.2499 21.1304 55.7925 17.6597C54.3351 14.1889 52.199 11.0353 49.5061 8.37884C46.8132 5.72242 43.6163 3.61523 40.0978 2.17759C36.5794 0.739945 32.8083 -1.64212e-07 29 0L29 15.4938C30.7457 15.4938 32.4743 15.833 34.0872 16.492C35.7 17.151 37.1654 18.117 38.3998 19.3346C39.6343 20.5523 40.6134 21.9979 41.2815 23.5889C41.9495 25.1799 42.2934 26.8851 42.2934 28.6071H58Z" fill="#00A453"/>
</svg>
