<svg width="87" height="87" viewBox="0 0 87 87" fill="none" xmlns="http://www.w3.org/2000/svg">
<path d="M43.5 0C49.2125 0 54.8691 1.12516 60.1467 3.31124C65.4244 5.49733 70.2198 8.70152 74.2592 12.7409C78.2985 16.7802 81.5027 21.5756 83.6888 26.8533C85.8748 32.131 87 37.7875 87 43.5L72.2829 43.5C72.2829 39.7202 71.5384 35.9774 70.0919 32.4853C68.6455 28.9932 66.5253 25.8202 63.8526 23.1474C61.1799 20.4747 58.0069 18.3545 54.5147 16.9081C51.0226 15.4616 47.2798 14.7171 43.5 14.7171L43.5 0Z" fill="#3C7AFC"/>
<path d="M43.5 87C37.7875 87 32.1309 85.8748 26.8533 83.6888C21.5756 81.5027 16.7802 78.2985 12.7408 74.2591C8.7015 70.2198 5.49731 65.4244 3.31124 60.1467C1.12516 54.869 -2.82998e-07 49.2125 3.8029e-06 43.5L14.7171 43.5C14.7171 47.2798 15.4616 51.0226 16.9081 54.5147C18.3545 58.0068 20.4747 61.1798 23.1474 63.8526C25.8201 66.5253 28.9932 68.6455 32.4853 70.0919C35.9774 71.5384 39.7202 72.2829 43.5 72.2829L43.5 87Z" fill="#FFBD00"/>
<path d="M43.5 87C49.2125 87 54.8691 85.8748 60.1467 83.6888C65.4244 81.5027 70.2198 78.2985 74.2592 74.2591C78.2985 70.2198 81.5027 65.4244 83.6888 60.1467C85.8748 54.869 87 49.2125 87 43.5L72.2829 43.5C72.2829 47.2798 71.5384 51.0226 70.0919 54.5147C68.6455 58.0068 66.5253 61.1798 63.8526 63.8526C61.1799 66.5253 58.0069 68.6455 54.5147 70.0919C51.0226 71.5384 47.2798 72.2829 43.5 72.2829L43.5 87Z" fill="#FB260A"/>
<path d="M43.5 0C37.7875 0 32.1309 1.12516 26.8533 3.31124C21.5756 5.49733 16.7802 8.70152 12.7408 12.7409C8.70149 16.7802 5.49731 21.5756 3.31123 26.8533C1.12515 32.131 -4.58529e-06 37.7875 0 43.5L14.7171 43.5C14.7171 39.7202 15.4616 35.9774 16.9081 32.4853C18.3545 28.9932 20.4747 25.8202 23.1474 23.1474C25.8201 20.4747 28.9931 18.3545 32.4853 16.9081C35.9774 15.4616 39.7202 14.7171 43.5 14.7171L43.5 0Z" fill="#00A453"/>
</svg>
