<svg width="505" height="98" viewBox="0 0 505 98" fill="none" xmlns="http://www.w3.org/2000/svg">
<rect width="17" height="462" rx="8.5" transform="matrix(0 -1 -1 0 483 98)" fill="#3C7AFC"/>
<rect width="16" height="75" rx="8" transform="matrix(-1 0 0 1 505 0)" fill="#3C7AFC"/>
<path d="M505 66.5C505 70.6366 504.25 74.7328 502.793 78.5545C501.335 82.3763 499.199 85.8488 496.506 88.7739C493.813 91.6989 490.616 94.0192 487.098 95.6022C483.579 97.1852 479.808 98 476 98L476 80.9394C477.746 80.9394 479.474 80.5659 481.087 79.8402C482.7 79.1146 484.165 78.051 485.4 76.7102C486.634 75.3694 487.613 73.7776 488.281 72.0257C488.95 70.2738 489.293 68.3962 489.293 66.5H505Z" fill="#3C7AFC"/>
<rect width="16" height="75" rx="8" fill="#3C7AFC"/>
<path d="M0 66.5C0 70.6366 0.750107 74.7328 2.20749 78.5545C3.66488 82.3763 5.801 85.8488 8.4939 88.7739C11.1868 91.6989 14.3837 94.0192 17.9022 95.6022C21.4206 97.1852 25.1917 98 29 98L29 80.9394C27.2543 80.9394 25.5257 80.5659 23.9128 79.8402C22.3 79.1146 20.8346 78.051 19.6002 76.7102C18.3657 75.3694 17.3866 73.7776 16.7185 72.0257C16.0505 70.2738 15.7066 68.3962 15.7066 66.5H0Z" fill="#3C7AFC"/>
</svg>
