<svg width="505" height="89" viewBox="0 0 505 89" fill="none" xmlns="http://www.w3.org/2000/svg">
<rect x="483" width="15.4388" height="462" rx="7.71939" transform="rotate(90 483 0)" fill="#00A453"/>
<rect x="505" y="89" width="16" height="68.1122" rx="8" transform="rotate(-180 505 89)" fill="#00A453"/>
<path d="M505 28.6071C505 24.8504 504.25 21.1304 502.793 17.6597C501.335 14.1889 499.199 11.0353 496.506 8.37884C493.813 5.72242 490.616 3.61523 487.098 2.17759C483.579 0.739945 479.808 -1.64212e-07 476 0L476 15.4938C477.746 15.4938 479.474 15.833 481.087 16.492C482.7 17.151 484.165 18.117 485.4 19.3346C486.634 20.5523 487.613 21.9979 488.281 23.5889C488.95 25.1799 489.293 26.8851 489.293 28.6071H505Z" fill="#00A453"/>
<rect width="16" height="68.1122" rx="8" transform="matrix(1 0 0 -1 0 89)" fill="#00A453"/>
<path d="M0 28.6071C0 24.8504 0.750107 21.1304 2.20749 17.6597C3.66488 14.1889 5.801 11.0353 8.4939 8.37884C11.1868 5.72242 14.3837 3.61523 17.9022 2.17759C21.4206 0.739945 25.1917 -1.64212e-07 29 0L29 15.4938C27.2543 15.4938 25.5257 15.833 23.9128 16.492C22.3 17.151 20.8346 18.117 19.6002 19.3346C18.3657 20.5523 17.3866 21.9979 16.7185 23.5889C16.0505 25.1799 15.7066 26.8851 15.7066 28.6071H0Z" fill="#00A453"/>
</svg>
