<svg width="122" height="89" viewBox="0 0 122 89" fill="none" xmlns="http://www.w3.org/2000/svg">
<rect x="100" width="15" height="111" rx="7.5" transform="rotate(90 100 0)" fill="#FB260A"/>
<rect x="122" y="89" width="16" height="68.1122" rx="8" transform="rotate(-180 122 89)" fill="#FB260A"/>
<path d="M122 28.6071C122 24.8504 121.25 21.1304 119.793 17.6597C118.335 14.1889 116.199 11.0353 113.506 8.37884C110.813 5.72242 107.616 3.61523 104.098 2.17759C100.579 0.739945 96.8083 -1.64212e-07 93 0L93 15.4938C94.7457 15.4938 96.4743 15.833 98.0872 16.492C99.7 17.151 101.165 18.117 102.4 19.3346C103.634 20.5523 104.613 21.9979 105.281 23.5889C105.95 25.1799 106.293 26.8851 106.293 28.6071H122Z" fill="#FB260A"/>
</svg>
